HIERARCHY
ROOT Hips
{
	OFFSET 0.000000 35.082581 0.000000
	CHANNELS 6 Xposition Yposition Zposition Xrotation Yrotation Zrotation 
	JOINT Spine
	{
		OFFSET 0.000000 6.876099 0.125700
		CHANNELS 3 Xrotation Yrotation Zrotation
		JOINT Spine1
		{
			OFFSET 0.000000 5.730043 0.104720
			CHANNELS 3 Xrotation Yrotation Zrotation
			JOINT Spine1_split
			{
				OFFSET 0.000000 5.730043 0.104720
				CHANNELS 3 Xrotation Yrotation Zrotation
				JOINT Spine2
				{
					OFFSET 0.000000 5.730043 0.104720
					CHANNELS 3 Xrotation Yrotation Zrotation
					JOINT Neck
					{
						OFFSET 0.000000 10.314075 0.188496
						CHANNELS 3 Xrotation Yrotation Zrotation
						JOINT Head
						{
							OFFSET 0.000000 7.643700 -2.377400
							CHANNELS 3 Xrotation Yrotation Zrotation
							JOINT HeadTop_End
							{
								OFFSET 0.000000 43.788605 -13.619600
								CHANNELS 3 Xrotation Yrotation Zrotation
								End Site
								{
									OFFSET 0.000000 0.000000 0.000000
								}
							}
						}
					}
					JOINT LeftShoulder
					{
						OFFSET 2.196100 4.412489 0.087492
						CHANNELS 3 Xrotation Yrotation Zrotation
						JOINT LeftShoulder_split
						{
							OFFSET 2.196100 4.412489 0.087492
							CHANNELS 3 Xrotation Yrotation Zrotation
							JOINT LeftArm
							{
								OFFSET 8.771219 -2.981674 -0.026999
								CHANNELS 3 Xrotation Yrotation Zrotation
								JOINT LeftForeArm
								{
									OFFSET 8.512804 0.000000 -0.000000
									CHANNELS 3 Xrotation Yrotation Zrotation
									JOINT LeftHand
									{
										OFFSET 18.484802 0.000000 -0.000000
										CHANNELS 3 Xrotation Yrotation Zrotation
										JOINT LeftHandThumb1
										{
											OFFSET 2.499420 -1.158070 2.653252
											CHANNELS 3 Xrotation Yrotation Zrotation
											JOINT LeftHandThumb2
											{
												OFFSET 2.370079 -1.368366 1.368366
												CHANNELS 3 Xrotation Yrotation Zrotation
												JOINT LeftHandThumb3
												{
													OFFSET 2.676727 -1.545410 1.545409
													CHANNELS 3 Xrotation Yrotation Zrotation
													JOINT LeftHandThumb4
													{
														OFFSET 1.692226 -0.977005 0.977007
														CHANNELS 3 Xrotation Yrotation Zrotation
														End Site
														{
															OFFSET 0.000000 0.000000 0.000000
														}
													}
												}
											}
										}
										JOINT LeftHandIndex1
										{
											OFFSET 7.924831 -0.457527 2.345128
											CHANNELS 3 Xrotation Yrotation Zrotation
											JOINT LeftHandIndex2
											{
												OFFSET 3.643303 0.000000 0.000000
												CHANNELS 3 Xrotation Yrotation Zrotation
												JOINT LeftHandIndex3
												{
													OFFSET 3.810799 0.000000 0.000000
													CHANNELS 3 Xrotation Yrotation Zrotation
													JOINT LeftHandIndex4
													{
														OFFSET 2.403702 0.000000 0.000000
														CHANNELS 3 Xrotation Yrotation Zrotation
														End Site
														{
															OFFSET 0.000000 0.000000 0.000000
														}
													}
												}
											}
										}
										JOINT LeftHandMiddle1
										{
											OFFSET 8.563995 0.000000 -0.000000
											CHANNELS 3 Xrotation Yrotation Zrotation
											JOINT LeftHandMiddle2
											{
												OFFSET 3.861618 0.000000 0.000000
												CHANNELS 3 Xrotation Yrotation Zrotation
												JOINT LeftHandMiddle3
												{
													OFFSET 3.701603 0.000000 0.000000
													CHANNELS 3 Xrotation Yrotation Zrotation
													JOINT LeftHandMiddle4
													{
														OFFSET 2.322544 0.000000 0.000000
														CHANNELS 3 Xrotation Yrotation Zrotation
														End Site
														{
															OFFSET 0.000000 0.000000 0.000000
														}
													}
												}
											}
										}
										JOINT LeftHandRing1
										{
											OFFSET 8.426460 -0.424637 -3.286992
											CHANNELS 3 Xrotation Yrotation Zrotation
											JOINT LeftHandRing2
											{
												OFFSET 3.126408 0.000000 0.000000
												CHANNELS 3 Xrotation Yrotation Zrotation
												JOINT LeftHandRing3
												{
													OFFSET 3.085026 0.000000 0.000000
													CHANNELS 3 Xrotation Yrotation Zrotation
													JOINT LeftHandRing4
													{
														OFFSET 1.644005 0.000000 0.000000
														CHANNELS 3 Xrotation Yrotation Zrotation
														End Site
														{
															OFFSET 0.000000 0.000000 0.000000
														}
													}
												}
											}
										}
									}
								}
							}
						}
					}
					JOINT RightShoulder
					{
						OFFSET -2.196100 4.412496 0.070690
						CHANNELS 3 Xrotation Yrotation Zrotation
						JOINT RightShoulder_split
						{
							OFFSET -2.196100 4.412496 0.070690
							CHANNELS 3 Xrotation Yrotation Zrotation
							JOINT RightArm
							{
								OFFSET -8.771282 -2.981682 -0.094208
								CHANNELS 3 Xrotation Yrotation Zrotation
								JOINT RightForeArm
								{
									OFFSET -8.494598 0.000000 0.000000
									CHANNELS 3 Xrotation Yrotation Zrotation
									JOINT RightHand
									{
										OFFSET -18.483803 0.000000 0.000001
										CHANNELS 3 Xrotation Yrotation Zrotation
										JOINT RightHandThumb1
										{
											OFFSET -2.527351 -1.008072 2.575253
											CHANNELS 3 Xrotation Yrotation Zrotation
											JOINT RightHandThumb2
											{
												OFFSET -2.321518 -1.340328 1.340329
												CHANNELS 3 Xrotation Yrotation Zrotation
												JOINT RightHandThumb3
												{
													OFFSET -2.657753 -1.534454 1.534455
													CHANNELS 3 Xrotation Yrotation Zrotation
													JOINT RightHandThumb4
													{
														OFFSET -1.807510 -1.043568 1.043567
														CHANNELS 3 Xrotation Yrotation Zrotation
														End Site
														{
															OFFSET 0.000000 0.000000 0.000000
														}
													}
												}
											}
										}
										JOINT RightHandIndex1
										{
											OFFSET -8.811420 0.015533 2.887987
											CHANNELS 3 Xrotation Yrotation Zrotation
											JOINT RightHandIndex2
											{
												OFFSET -3.537502 0.000000 0.000000
												CHANNELS 3 Xrotation Yrotation Zrotation
												JOINT RightHandIndex3
												{
													OFFSET -3.356201 0.000000 0.000000
													CHANNELS 3 Xrotation Yrotation Zrotation
													JOINT RightHandIndex4
													{
														OFFSET -1.933098 0.000000 0.000000
														CHANNELS 3 Xrotation Yrotation Zrotation
														End Site
														{
															OFFSET 0.000000 0.000000 0.000000
														}
													}
												}
											}
										}
										JOINT RightHandMiddle1
										{
											OFFSET -8.178135 0.000000 0.000000
											CHANNELS 3 Xrotation Yrotation Zrotation
											JOINT RightHandMiddle2
											{
												OFFSET -3.901302 0.000000 0.000000
												CHANNELS 3 Xrotation Yrotation Zrotation
												JOINT RightHandMiddle3
												{
													OFFSET -3.909599 0.000000 0.000000
													CHANNELS 3 Xrotation Yrotation Zrotation
													JOINT RightHandMiddle4
													{
														OFFSET -2.376003 0.000000 0.000000
														CHANNELS 3 Xrotation Yrotation Zrotation
														End Site
														{
															OFFSET 0.000000 0.000000 0.000000
														}
													}
												}
											}
										}
										JOINT RightHandRing1
										{
											OFFSET -7.559013 0.014137 -2.865403
											CHANNELS 3 Xrotation Yrotation Zrotation
											JOINT RightHandRing2
											{
												OFFSET -3.449306 0.000000 0.000000
												CHANNELS 3 Xrotation Yrotation Zrotation
												JOINT RightHandRing3
												{
													OFFSET -3.362106 0.000000 0.000000
													CHANNELS 3 Xrotation Yrotation Zrotation
													JOINT RightHandRing4
													{
														OFFSET -2.076401 0.000000 0.000000
														CHANNELS 3 Xrotation Yrotation Zrotation
														End Site
														{
															OFFSET 0.000000 0.000000 0.000000
														}
													}
												}
											}
										}
									}
								}
							}
						}
					}
				}
			}
		}
	}
	JOINT LeftUpLeg
	{
		OFFSET 10.205400 -3.823500 0.155100
		CHANNELS 3 Xrotation Yrotation Zrotation
		JOINT LeftLeg
		{
			OFFSET 0.708757 -12.982077 0.567790
			CHANNELS 3 Xrotation Yrotation Zrotation
			JOINT LeftFoot
			{
				OFFSET -0.708756 -10.717838 -2.184338
				CHANNELS 3 Xrotation Yrotation Zrotation
				JOINT LeftToeBase
				{
					OFFSET 0.108149 -7.191104 7.560241
					CHANNELS 3 Xrotation Yrotation Zrotation
					JOINT LeftToe_End
					{
						OFFSET 0.070230 0.081724 4.490308
						CHANNELS 3 Xrotation Yrotation Zrotation
						End Site
						{
							OFFSET 0.000000 0.000000 0.000000
						}
					}
				}
			}
		}
	}
	JOINT RightUpLeg
	{
		OFFSET -10.205400 -3.823500 0.005500
		CHANNELS 3 Xrotation Yrotation Zrotation
		JOINT RightLeg
		{
			OFFSET -0.708756 -12.982134 0.610632
			CHANNELS 3 Xrotation Yrotation Zrotation
			JOINT RightFoot
			{
				OFFSET 0.708754 -10.717769 -1.945823
				CHANNELS 3 Xrotation Yrotation Zrotation
				JOINT RightToeBase
				{
					OFFSET -0.108140 -7.191069 7.372968
					CHANNELS 3 Xrotation Yrotation Zrotation
					JOINT RightToe_End
					{
						OFFSET -0.070227 0.081735 4.479403
						CHANNELS 3 Xrotation Yrotation Zrotation
						End Site
						{
							OFFSET 0.000000 0.000000 0.000000
						}
					}
				}
			}
		}
	}
}
MOTION
Frames: 4
Frame Time: 0.016667
0.225452 26.823959 -2.771194 -11.643674 4.261593 0.344405 23.956414 0.035839 0.857709 13.992116 -0.012110 0.874928 0.000000 0.000000 0.000000 13.993091 -0.019271 0.870006 17.101286 -1.158556 -1.120068 -9.419545 -3.200687 0.179589 -0.000002 -0.000000 -0.000000 1.274341 -20.464777 -8.784596 0.000000 0.000000 0.000000 -24.361973 0.125587 -58.409531 -134.037326 -77.572453 -130.766444 -10.954482 -21.976299 17.417640 20.303062 9.934870 -19.709467 3.939266 33.659490 6.068785 -0.000004 0.000010 -0.000003 -0.000001 -0.000003 -0.000001 11.348459 7.907833 -58.203696 11.226008 12.103260 -91.045582 0.000005 0.000011 -0.000002 -0.000000 0.000000 0.000001 -3.306156 14.721238 -56.170181 18.751046 6.507088 -95.555562 0.000013 -0.000015 0.000008 -0.000000 0.000000 0.000002 -8.496656 16.099256 -73.492221 10.309622 4.265403 -84.428378 -0.000001 -0.000011 0.000008 -0.000001 -0.000000 -0.000003 4.281750 6.062541 24.486865 0.000000 0.000000 0.000000 -20.183598 30.543998 38.966916 -101.168564 66.637429 94.218655 -10.108822 25.059856 -19.829303 9.450198 -8.378763 2.091209 9.478105 -37.583041 5.312507 -0.000001 -0.000014 -0.000011 0.000001 0.000000 -0.000000 9.382240 -23.801877 56.987181 11.353629 -12.107978 91.751400 -0.000008 -0.000002 0.000002 0.000000 -0.000000 0.000000 -6.258883 -19.691606 58.403192 17.354326 -6.618631 88.873370 0.000004 0.000007 -0.000003 0.000001 -0.000001 -0.000003 -12.782165 -20.150861 66.716079 10.303225 -4.268418 84.398291 0.000000 0.000003 0.000002 0.000001 -0.000000 -0.000001 -34.629547 -7.813637 19.390685 78.292286 -4.850359 -0.016046 -30.755980 -0.661183 -15.849937 -0.000120 -0.000000 -0.000002 0.000000 -0.000000 0.000000 -23.163297 -3.560652 -24.861479 79.423516 5.924711 0.026320 -42.025358 -6.460238 14.775665 0.000007 -0.000002 -0.000001 0.000000 0.000000 0.000000 
0.210207 26.929970 -2.713443 -12.233733 4.283541 0.329306 23.831235 0.026362 0.840311 13.805195 -0.026557 0.877420 0.000000 0.000000 0.000000 13.806100 -0.034362 0.873753 16.072149 -1.248016 -1.155620 -9.382880 -3.306537 0.444387 -0.000001 -0.000000 -0.000000 1.202831 -20.287501 -9.383886 0.000000 0.000000 0.000000 -23.683041 -0.501265 -58.145059 -129.876648 -77.684577 -126.405901 -10.999913 -21.654333 17.436728 20.302821 9.934927 -19.709071 3.939260 33.659493 6.068791 -0.000003 0.000008 -0.000004 -0.000000 -0.000005 -0.000002 11.348457 7.907820 -58.203703 11.226460 12.103532 -91.045609 0.000005 0.000011 0.000002 0.000001 -0.000001 -0.000004 -3.306163 14.721247 -56.170198 18.751074 6.507070 -95.555555 0.000012 -0.000015 0.000010 0.000000 0.000000 -0.000002 -8.496662 16.099234 -73.492234 10.309648 4.265583 -84.428378 -0.000003 -0.000011 0.000006 0.000001 0.000000 -0.000001 4.360493 5.935277 25.053721 0.000000 0.000000 0.000000 -19.084824 29.887699 38.977239 -103.118207 67.822897 95.667174 -10.145656 25.283412 -19.500485 9.446289 -8.364326 2.093535 9.477991 -37.583078 5.312459 -0.000002 -0.000011 -0.000007 0.000003 0.000001 0.000003 9.382263 -23.801864 56.987185 11.353643 -12.108287 91.751400 -0.000008 -0.000001 0.000002 0.000000 0.000000 -0.000001 -6.258485 -19.691519 58.403240 17.354341 -6.618630 88.873370 0.000003 0.000007 0.000000 -0.000000 0.000000 0.000000 -12.782118 -20.150873 66.716079 10.303214 -4.268372 84.398271 0.000002 0.000004 0.000004 -0.000000 -0.000002 -0.000002 -33.383403 -7.820948 19.398724 77.664073 -4.791780 -0.012155 -30.766355 -0.508494 -15.929593 -0.000124 -0.000000 -0.000002 0.000000 -0.000001 0.000000 -21.955257 -3.880027 -24.634530 78.596810 5.831419 0.023943 -41.874722 -6.496307 14.743774 0.000009 -0.000003 -0.000001 0.000000 -0.000001 -0.000000 
0.191344 27.036915 -2.643560 -12.400674 4.314879 0.336754 23.645408 0.003346 0.828961 13.485195 -0.074092 0.867699 0.000000 0.000000 0.000000 13.486095 -0.083624 0.864978 15.039849 -1.249822 -1.288810 -9.417322 -3.318419 0.602191 -0.000001 0.000000 -0.000000 1.157222 -20.150272 -9.778060 0.000000 0.000000 0.000000 -22.947108 -1.113753 -58.002916 -128.515992 -78.463833 -124.614752 -11.059319 -21.593660 17.251461 20.302592 9.934969 -19.708688 3.939293 33.659507 6.068755 0.000003 0.000010 -0.000001 0.000002 -0.000003 -0.000000 11.348446 7.907817 -58.203703 11.226835 12.103795 -91.045636 0.000003 0.000011 -0.000004 -0.000001 0.000001 0.000001 -3.306166 14.721254 -56.170181 18.751092 6.507071 -95.555596 0.000011 -0.000016 0.000008 0.000001 -0.000001 0.000002 -8.496671 16.099265 -73.492207 10.309655 4.265819 -84.428453 -0.000001 -0.000010 0.000010 -0.000001 0.000000 0.000000 4.416308 5.793507 25.390692 0.000000 0.000000 0.000000 -17.739847 29.670181 39.116729 -104.281587 68.988592 96.225993 -10.264608 25.068401 -18.893399 9.441747 -8.346793 2.096341 9.477903 -37.583126 5.312434 -0.000000 -0.000009 -0.000010 -0.000001 0.000003 -0.000002 9.382253 -23.801886 56.987198 11.353712 -12.108576 91.751420 -0.000009 -0.000000 0.000003 -0.000000 0.000000 -0.000001 -6.258154 -19.691417 58.403261 17.354341 -6.618619 88.873356 0.000004 0.000008 0.000001 -0.000002 -0.000001 -0.000001 -12.782130 -20.150854 66.716072 10.303235 -4.268415 84.398312 0.000000 0.000002 0.000001 -0.000002 0.000000 -0.000000 -32.618549 -7.796626 19.359246 76.992351 -4.717150 -0.008576 -30.684584 -0.388480 -16.009410 -0.000125 0.000001 -0.000002 0.000000 0.000001 -0.000000 -21.237317 -4.133984 -24.450745 77.863692 5.730016 0.021864 -41.738279 -6.543499 14.716542 0.000013 -0.000000 -0.000002 0.000000 0.000001 -0.000000 
0.169076 27.144333 -2.565945 -12.415795 4.351723 0.360582 23.415261 -0.039843 0.825375 13.067811 -0.162276 0.825651 0.000000 0.000000 0.000000 13.068602 -0.171246 0.822489 13.978628 -1.216190 -1.482817 -9.588721 -3.290706 0.698247 -0.000003 -0.000000 -0.000000 1.128235 -20.026955 -10.044963 0.000000 0.000000 0.000000 -22.214345 -1.700947 -57.924621 -130.357002 -79.992348 -125.863611 -11.142065 -21.528959 16.750323 20.302394 9.935036 -19.708355 3.939264 33.659473 6.068791 -0.000000 0.000009 -0.000006 -0.000002 -0.000004 -0.000002 11.348440 7.907823 -58.203696 11.227246 12.104039 -91.045691 0.000003 0.000012 -0.000003 0.000000 0.000000 -0.000003 -3.306162 14.721233 -56.170185 18.751060 6.507093 -95.555583 0.000012 -0.000015 0.000007 -0.000000 -0.000000 -0.000004 -8.496644 16.099256 -73.492221 10.309671 4.266082 -84.428515 -0.000001 -0.000010 0.000010 0.000000 0.000001 0.000002 4.462520 5.633537 25.561020 0.000000 0.000000 0.000000 -16.203678 29.709089 39.388215 -105.211927 70.240777 96.452134 -10.509768 24.499120 -18.061344 9.436416 -8.325844 2.099691 9.477797 -37.583157 5.312418 -0.000002 -0.000009 -0.000010 -0.000001 0.000001 0.000002 9.382285 -23.801882 56.987205 11.353734 -12.108739 91.751400 -0.000009 -0.000001 0.000003 0.000001 0.000001 -0.000001 -6.257868 -19.691359 58.403315 17.354331 -6.618624 88.873349 0.000004 0.000007 0.000002 -0.000000 -0.000000 -0.000003 -12.782120 -20.150882 66.716072 10.303238 -4.268396 84.398291 -0.000000 0.000004 0.000003 -0.000002 -0.000000 0.000002 -32.024896 -7.728539 19.319381 76.288999 -4.661924 -0.005323 -30.564212 -0.295940 -16.072636 -0.000123 -0.000003 -0.000002 0.000000 0.000000 0.000000 -20.691930 -4.381513 -24.298178 77.167477 5.654825 0.020665 -41.622469 -6.597043 14.667042 0.000007 -0.000000 -0.000002 0.000000 -0.000004 0.000000 
